<?xml version="1.0" standalone="no"?>
<!DOCTYPE svg PUBLIC "-//W3C//DTD SVG 20010904//EN"
 "http://www.w3.org/TR/2001/REC-SVG-20010904/DTD/svg10.dtd">
<svg version="1.0" xmlns="http://www.w3.org/2000/svg"
 width="388.000000pt" height="388.000000pt" viewBox="0 0 388.000000 388.000000"
 preserveAspectRatio="xMidYMid meet">

<g transform="translate(0.000000,388.000000) scale(0.100000,-0.100000)"
fill="#000000" stroke="none">
<path d="M1745 3849 c-384 -40 -730 -182 -1019 -418 -97 -80 -271 -260 -338
-351 -195 -265 -307 -542 -354 -880 -21 -147 -15 -509 10 -645 74 -403 244
-723 532 -1007 166 -162 316 -270 501 -359 556 -269 1327 -249 1848 48 327
186 595 497 753 873 80 191 161 492 187 698 6 46 5 52 -12 52 -10 0 -265 7
-567 15 -302 8 -551 13 -554 10 -2 -2 -11 -42 -18 -89 -58 -361 -248 -595
-551 -678 -106 -29 -345 -31 -443 -5 -270 74 -475 284 -552 563 -31 115 -31
373 0 489 74 268 256 472 498 558 199 71 464 57 634 -34 161 -86 276 -224 361
-433 31 -75 32 -76 68 -76 20 0 268 16 551 35 283 19 530 35 549 35 33 0 33 0
26 37 -25 133 -120 404 -195 554 -251 501 -679 841 -1220 969 -189 44 -484 61
-695 39z"/>
</g>
</svg>
